<svg width="256" height="256" viewBox="0 0 256 256" fill="none" xmlns="http://www.w3.org/2000/svg">
<path d="M160 8V48C160 56.8366 167.163 64 176 64H216V232C216 240.837 208.837 248 200 248H56C47.1634 248 40 240.837 40 232V24C40 15.1634 47.1634 8 56 8H160Z" fill="url(#paint0_linear_4873_2294)"/>
<path d="M160 8L216 64H176C167.163 64 160 56.8366 160 48V8Z" fill="#DA8281"/>
<path d="M77.3889 216C76.9815 216 76.6482 215.87 76.3889 215.61C76.1296 215.35 76 215.016 76 214.607V178.393C76 177.984 76.1296 177.65 76.3889 177.39C76.6482 177.13 76.9815 177 77.3889 177H92.5558C95.5558 177 98.1484 177.464 100.334 178.393C102.556 179.321 104.278 180.733 105.5 182.627C106.76 184.484 107.389 186.806 107.389 189.591C107.389 192.414 106.76 194.754 105.5 196.611C104.278 198.431 102.556 199.787 100.334 200.679C98.1484 201.57 95.5558 202.016 92.5558 202.016H85.1112V214.607C85.1112 215.016 84.9816 215.35 84.7223 215.61C84.4631 215.87 84.1297 216 83.7223 216H77.3889ZM84.9446 195.107H92.278C94.1669 195.107 95.6299 194.643 96.6669 193.714C97.741 192.786 98.2781 191.393 98.2781 189.536C98.2781 187.901 97.7966 186.564 96.8336 185.524C95.9077 184.484 94.3891 183.964 92.278 183.964H84.9446V195.107Z" fill="white"/>
<path d="M114.444 216C114.037 216 113.704 215.87 113.444 215.61C113.185 215.35 113.056 215.016 113.056 214.607V178.393C113.056 177.984 113.185 177.65 113.444 177.39C113.704 177.13 114.037 177 114.444 177H128.389C132.093 177 135.185 177.594 137.667 178.783C140.149 179.934 142.037 181.643 143.334 183.909C144.667 186.137 145.371 188.904 145.445 192.21C145.482 193.844 145.5 195.274 145.5 196.5C145.5 197.726 145.482 199.137 145.445 200.734C145.334 204.189 144.649 207.049 143.389 209.314C142.13 211.58 140.278 213.27 137.834 214.384C135.389 215.461 132.334 216 128.667 216H114.444ZM121.889 208.813H128.389C130.241 208.813 131.76 208.534 132.945 207.977C134.13 207.42 135 206.547 135.556 205.359C136.148 204.133 136.463 202.554 136.5 200.623C136.537 199.546 136.556 198.58 136.556 197.726C136.593 196.871 136.593 196.017 136.556 195.163C136.556 194.309 136.537 193.361 136.5 192.321C136.426 189.536 135.704 187.493 134.334 186.193C133 184.856 130.926 184.187 128.111 184.187H121.889V208.813Z" fill="white"/>
<path d="M153.833 216C153.426 216 153.092 215.87 152.833 215.61C152.574 215.35 152.444 215.016 152.444 214.607V178.393C152.444 177.984 152.574 177.65 152.833 177.39C153.092 177.13 153.426 177 153.833 177H178.611C179.019 177 179.352 177.13 179.611 177.39C179.87 177.65 180 177.984 180 178.393V183.129C180 183.537 179.87 183.871 179.611 184.131C179.352 184.391 179.019 184.521 178.611 184.521H161.111V193.937H177.5C177.907 193.937 178.241 194.067 178.5 194.327C178.759 194.587 178.889 194.921 178.889 195.33V200.066C178.889 200.437 178.759 200.753 178.5 201.013C178.241 201.273 177.907 201.403 177.5 201.403H161.111V214.607C161.111 215.016 160.981 215.35 160.722 215.61C160.463 215.87 160.129 216 159.722 216H153.833Z" fill="white"/>
<rect x="76" y="121" width="104" height="12" rx="6" fill="white"/>
<rect x="76" y="141" width="104" height="12" rx="6" fill="white"/>
<defs>
<linearGradient id="paint0_linear_4873_2294" x1="216" y1="8.00001" x2="40" y2="248" gradientUnits="userSpaceOnUse">
<stop stop-color="#B96364"/>
<stop offset="1" stop-color="#984648"/>
</linearGradient>
</defs>
</svg>
